<svg xmlns="http://www.w3.org/2000/svg" width="20" height="21" fill="none" viewBox="0 0 20 21"><path fill="#F75D34" d="M17.531 4.008h-.033V2.971a.469.469 0 1 0-.938 0v1.037h-1.07V2.971a.469.469 0 0 0-.938 0v1.037h-.033a.469.469 0 0 0-.469.47v1.505c0 .928.643 1.708 1.506 1.919v6.617a.536.536 0 0 1-1.07 0V10a2.48 2.48 0 0 0-2.009-2.432V3.724c0-.95-.773-1.724-1.724-1.724H4.226c-.95 0-1.724.773-1.724 1.724v13.338H2.47a.469.469 0 0 0 0 .938H12.51a.469.469 0 0 0 0-.938h-.033V8.534c.62.198 1.07.78 1.07 1.466v4.519a1.475 1.475 0 0 0 2.946 0V7.902A1.978 1.978 0 0 0 18 5.983V4.477a.469.469 0 0 0-.469-.469Zm-8.555 9.214-1.067 2.134a.469.469 0 1 1-.839-.42l.728-1.455H6.423a.469.469 0 0 1-.42-.678l1.067-2.134a.469.469 0 1 1 .839.42l-.728 1.455h1.376a.469.469 0 0 1 .419.678Zm1.493-4.728c0 .259-.21.469-.469.469H4.98a.469.469 0 0 1-.47-.47V4.478c0-.259.21-.469.47-.469H10c.259 0 .469.21.469.47v4.016Z"/></svg>