<svg xmlns="http://www.w3.org/2000/svg" width="20" height="21" fill="none" viewBox="0 0 20 21"><path fill="#F75D34" d="M3.799 16.494a2.15 2.15 0 1 0 0-4.3 2.15 2.15 0 0 0 0 4.3ZM17.836 15.864a2.15 2.15 0 1 0-3.04-3.04 2.15 2.15 0 0 0 3.04 3.04Z"/><path fill="#F75D34" d="M19.552 8.919c-.86-2.76-1.785-4.424-3.216-4.678-1.244-.18-2.5-.26-3.757-.237l-.082.002c-.652 0-1.41.212-1.41 1.173v2.104a1.705 1.705 0 0 1 1.385 1.674v1.474a.232.232 0 0 1-.233.233h-.382v1.18a.323.323 0 1 1-.645 0v-1.18h-.894v1.181a.322.322 0 0 1-.645 0v-1.18h-.382a.232.232 0 0 1-.232-.233V8.957a1.706 1.706 0 0 1 1.384-1.674V5.18a1.783 1.783 0 0 1 .33-1.085c-.499.043-.993.123-1.479.239-1.638.413-4.774 2.915-5.83 3.784-.228.19-.361.306-.361.306l-.34.197c-.662.4-2.102 1.35-2.502 2.237-.33.723-.283 1.904-.202 2.69a.89.89 0 0 0 .886.796h.06a2.795 2.795 0 1 1 5.59 0h6.93a2.795 2.795 0 1 1 5.59-.01.89.89 0 0 0 .769-.754l.061-.555a10.483 10.483 0 0 0-.393-4.106Z"/></svg>