<svg width="24" height="24" viewBox="0 0 24 24" fill="none" xmlns="http://www.w3.org/2000/svg">
<path d="M12 21.25C17.1086 21.25 21.25 17.1086 21.25 12C21.25 6.89137 17.1086 2.75 12 2.75C6.89137 2.75 2.75 6.89137 2.75 12C2.75 17.1086 6.89137 21.25 12 21.25Z" stroke="#002441" stroke-width="1.5" stroke-miterlimit="10" stroke-linecap="round" stroke-linejoin="round"/>
<path d="M12 14C12.8284 14 13.5 13.3284 13.5 12.5C13.5 11.6716 12.8284 11 12 11C11.1716 11 10.5 11.6716 10.5 12.5C10.5 13.3284 11.1716 14 12 14Z" fill="#002441"/>
<path d="M4.73059 11.2135C4.76809 11.2015 8.52309 10 11.9996 10C15.4761 10 19.2311 11.2015 19.2686 11.2135C19.3326 11.234 19.3971 11.241 19.4611 11.244C19.4036 10.673 19.2761 10.1235 19.0976 9.5975C17.8361 9.2395 14.8821 8.5 11.9996 8.5C9.11709 8.5 6.16309 9.2395 4.90159 9.5975C4.72259 10.124 4.59559 10.674 4.53809 11.2455C4.60209 11.2425 4.66659 11.234 4.73059 11.2135Z" fill="#002441"/>
<path d="M9.8713 19.1876C10.3763 19.3371 10.9033 19.4316 11.4463 19.4716C11.1553 17.1716 9.5678 13.1651 4.5293 12.5791C4.5703 13.1136 4.6648 13.6326 4.8128 14.1301C8.4873 14.7636 9.5603 17.6086 9.8713 19.1876Z" fill="#002441"/>
<path d="M12.5537 19.4716C13.0967 19.4316 13.6237 19.3371 14.1287 19.1876C14.4397 17.6091 15.5127 14.7636 19.1877 14.1301C19.3352 13.6326 19.4297 13.1136 19.4712 12.5791C14.4327 13.1651 12.8447 17.1716 12.5537 19.4716Z" fill="#002441"/>
</svg>
